<?xml version="1.0" encoding="utf-8"?>
<!-- Generator: Adobe Illustrator 16.0.4, SVG Export Plug-In . SVG Version: 6.00 Build 0)  -->
<!DOCTYPE svg PUBLIC "-//W3C//DTD SVG 1.1//EN" "http://www.w3.org/Graphics/SVG/1.1/DTD/svg11.dtd">
<svg version="1.1" id="Layer_1" xmlns="http://www.w3.org/2000/svg" xmlns:xlink="http://www.w3.org/1999/xlink" x="0px" y="0px"
	 width="182px" height="102px" viewBox="0 0 182 102" enable-background="new 0 0 182 102" xml:space="preserve">
<g>
	<g enable-background="new    ">
		<path fill="#231F20" d="M102.97,11.439h5.327c1.197,0,2.189,0.209,2.977,0.628c0.787,0.418,1.37,0.982,1.748,1.691
			c0.377,0.709,0.565,1.507,0.565,2.393s-0.185,1.678-0.554,2.375s-0.939,1.248-1.71,1.654s-1.739,0.609-2.903,0.609h-2.571v6.348
			h-2.879V11.439z M108.211,18.391c0.836,0,1.457-0.197,1.863-0.591s0.609-0.918,0.609-1.574c0-0.689-0.207-1.243-0.621-1.661
			s-1.023-0.627-1.827-0.627h-2.387v4.453H108.211z"/>
		<path fill="#231F20" d="M116.595,26.467c-0.669-0.783-1.003-2.027-1.003-3.733v-7.356h2.781v7.356
			c0,0.878,0.148,1.529,0.448,1.956s0.712,0.64,1.236,0.64c0.468,0,0.894-0.123,1.28-0.369c0.385-0.246,0.688-0.59,0.91-1.033
			c0.221-0.443,0.332-0.943,0.332-1.501v-7.049h2.842v9.842c0,0.5,0.014,0.882,0.043,1.144c0.028,0.263,0.1,0.521,0.215,0.775
			h-2.756c-0.106-0.205-0.174-0.408-0.203-0.609c-0.028-0.2-0.043-0.453-0.043-0.756c-0.328,0.565-0.795,1.019-1.402,1.359
			c-0.607,0.34-1.197,0.511-1.771,0.511C118.232,27.643,117.264,27.25,116.595,26.467z"/>
		<path fill="#231F20" d="M131.904,27.125c-0.541-0.262-1.004-0.635-1.39-1.119l-0.382,1.132h-1.968V10.136h3.026v0.283
			c-0.09,0.098-0.147,0.207-0.172,0.325c-0.025,0.119-0.033,0.318-0.025,0.597v5.045c0.361-0.402,0.781-0.714,1.262-0.936
			c0.479-0.222,0.965-0.332,1.457-0.332c0.902,0,1.73,0.224,2.486,0.671c0.754,0.446,1.354,1.113,1.802,1.999
			c0.446,0.886,0.671,1.96,0.671,3.223c0,1.378-0.24,2.56-0.721,3.543c-0.479,0.984-1.107,1.725-1.882,2.221
			s-1.593,0.745-2.454,0.745C133.016,27.52,132.446,27.388,131.904,27.125z M134.471,24.788c0.389-0.254,0.713-0.664,0.971-1.23
			c0.259-0.565,0.389-1.287,0.389-2.165c0-1.197-0.223-2.161-0.665-2.892c-0.442-0.729-1.103-1.095-1.98-1.095
			c-0.837,0-1.415,0.334-1.735,1.003c-0.319,0.669-0.479,1.572-0.479,2.713c0,1.41,0.196,2.438,0.59,3.081
			c0.394,0.645,0.959,0.966,1.697,0.966C133.677,25.169,134.08,25.042,134.471,24.788z"/>
		<path fill="#231F20" d="M141.193,27.138v-2.189h3.224V12.325h-3.063v-2.189h5.918v14.812h3.198v2.189H141.193z"/>
		<path fill="#231F20" d="M154.346,27.138v-2.264h2.829v-7.233h-2.694v-2.264h5.512v9.497h2.57v2.264H154.346z M157.52,13.106
			c-0.271-0.151-0.484-0.354-0.641-0.608c-0.155-0.255-0.233-0.529-0.233-0.824c0-0.484,0.164-0.884,0.492-1.2
			c0.328-0.315,0.751-0.474,1.267-0.474c0.304,0,0.593,0.076,0.867,0.228c0.275,0.152,0.494,0.357,0.658,0.615
			c0.164,0.259,0.246,0.535,0.246,0.831c0,0.295-0.082,0.569-0.246,0.824c-0.164,0.254-0.383,0.457-0.658,0.608
			c-0.274,0.152-0.563,0.228-0.867,0.228C158.085,13.334,157.789,13.259,157.52,13.106z"/>
		<path fill="#231F20" d="M172.404,25.12c0,0,0.257-0.123,0.77-0.369s0.99-0.644,1.434-1.193l1.636,1.895
			c-0.632,0.714-1.343,1.241-2.134,1.581c-0.792,0.34-1.627,0.511-2.504,0.511c-1.148,0-2.174-0.267-3.076-0.8
			s-1.605-1.27-2.109-2.208c-0.504-0.939-0.757-1.995-0.757-3.168c0-1.165,0.253-2.223,0.757-3.175
			c0.504-0.951,1.209-1.701,2.115-2.251s1.938-0.824,3.095-0.824c0.968,0,1.874,0.197,2.719,0.591s1.509,0.951,1.993,1.673
			l-1.574,1.846l-0.013,0.024c-0.009,0-0.013-0.004-0.013-0.013c-0.344-0.599-0.763-1.043-1.254-1.335
			c-0.492-0.291-1.112-0.437-1.858-0.437c-0.574,0-1.097,0.164-1.568,0.492s-0.845,0.792-1.12,1.391
			c-0.274,0.599-0.412,1.287-0.412,2.066c0,0.746,0.129,1.398,0.388,1.956s0.622,0.988,1.089,1.292c0.468,0.304,1,0.455,1.6,0.455
			C172.139,25.12,172.404,25.12,172.404,25.12z M174.41,19.202c0-0.024,0.008-0.036,0.025-0.036c0.049,0,0.131,0.058,0.246,0.172
			l-0.05,0.062l-0.222-0.185V19.202z M174.828,19.424c0,0.009-0.004,0.013-0.012,0.013c-0.025,0-0.07-0.033-0.135-0.099l0.073-0.086
			C174.805,19.351,174.828,19.407,174.828,19.424z"/>
	</g>
	<g enable-background="new    ">
		<path fill="#231F20" d="M102.822,41.674h4.06c1.337,0,2.401,0.179,3.192,0.535c0.791,0.357,1.467,0.909,2.023,1.655
			c1.074,1.46,1.612,3.383,1.612,5.77c0,2.477-0.577,4.386-1.729,5.727c-1.152,1.341-2.955,2.012-5.407,2.012h-3.752V41.674z
			 M106.525,55.157c1.468,0,2.561-0.463,3.278-1.39s1.077-2.28,1.077-4.06c0-3.79-1.366-5.685-4.098-5.685h-1.218v11.134H106.525z"
			/>
		<path fill="#231F20" d="M124.05,46.386c0.931,0.771,1.396,2.047,1.396,3.826v7.16h-2.694v-1.058
			c-0.451,0.426-0.994,0.761-1.63,1.002c-0.636,0.242-1.319,0.363-2.048,0.363c-1.223,0-2.154-0.302-2.793-0.904
			c-0.641-0.603-0.96-1.421-0.96-2.454c0-0.837,0.265-1.551,0.794-2.141c0.529-0.591,1.291-1.04,2.288-1.348
			c0.996-0.308,2.188-0.461,3.573-0.461h0.861c-0.082-1.025-0.332-1.757-0.75-2.196c-0.418-0.438-1.055-0.658-1.907-0.658
			c-0.541,0-1.103,0.142-1.686,0.425c-0.582,0.283-1.119,0.679-1.611,1.188l-1.439-1.858c0.738-0.672,1.532-1.181,2.38-1.525
			c0.85-0.345,1.684-0.517,2.504-0.517C121.879,45.229,123.119,45.615,124.05,46.386z M121.965,54.739
			c0.483-0.524,0.775-1.354,0.873-2.485h-0.566c-1.443,0-2.496,0.156-3.161,0.468c-0.664,0.312-0.997,0.804-0.997,1.477
			c0,0.459,0.167,0.796,0.499,1.009s0.789,0.319,1.372,0.319C120.82,55.526,121.48,55.265,121.965,54.739z"/>
		<path fill="#231F20" d="M138.376,56.314c-0.615,0.459-1.253,0.81-1.913,1.052c-0.66,0.241-1.376,0.362-2.146,0.362
			c-1.223,0-2.157-0.36-2.805-1.082c-0.648-0.722-0.973-1.965-0.973-3.728c0-0.451,0.025-0.947,0.074-1.489l0.209-3.53h-2.547
			l0.049-2.288h2.633l0.16-2.756l3.101-0.517l0.05,0.282c-0.018,0.024-0.059,0.085-0.123,0.179c-0.066,0.095-0.119,0.205-0.16,0.332
			s-0.066,0.277-0.074,0.449l-0.185,2.03h3.617l-0.05,2.288h-3.616l-0.271,3.346c-0.041,0.574-0.062,1.034-0.062,1.378
			c0,1.042,0.127,1.77,0.382,2.184c0.255,0.415,0.652,0.622,1.193,0.622c0.509,0,0.979-0.099,1.415-0.296
			c0.435-0.196,0.914-0.524,1.439-0.984L138.376,56.314z"/>
		<path fill="#231F20" d="M149.246,46.386c0.93,0.771,1.396,2.047,1.396,3.826v7.16h-2.695v-1.058
			c-0.451,0.426-0.994,0.761-1.629,1.002c-0.637,0.242-1.319,0.363-2.049,0.363c-1.223,0-2.153-0.302-2.793-0.904
			s-0.959-1.421-0.959-2.454c0-0.837,0.264-1.551,0.793-2.141c0.529-0.591,1.292-1.04,2.289-1.348
			c0.996-0.308,2.188-0.461,3.573-0.461h0.86c-0.082-1.025-0.332-1.757-0.75-2.196c-0.418-0.438-1.054-0.658-1.906-0.658
			c-0.541,0-1.104,0.142-1.686,0.425s-1.119,0.679-1.611,1.188l-1.439-1.858c0.738-0.672,1.531-1.181,2.38-1.525
			s1.684-0.517,2.504-0.517C147.074,45.229,148.314,45.615,149.246,46.386z M147.16,54.739c0.484-0.524,0.775-1.354,0.873-2.485
			h-0.565c-1.443,0-2.497,0.156-3.161,0.468s-0.997,0.804-0.997,1.477c0,0.459,0.167,0.796,0.499,1.009s0.789,0.319,1.371,0.319
			C146.016,55.526,146.676,55.265,147.16,54.739z"/>
	</g>
	<g enable-background="new    ">
		<path fill="#231F20" d="M103.252,71.909h3.089v0.283c-0.091,0.099-0.147,0.207-0.173,0.326c-0.024,0.119-0.033,0.317-0.024,0.597
			v12.118h7.136v2.374h-10.027V71.909z"/>
		<path fill="#231F20" d="M124.05,76.621c0.931,0.771,1.396,2.047,1.396,3.826v7.16h-2.694V86.55
			c-0.451,0.426-0.994,0.761-1.63,1.002c-0.636,0.242-1.319,0.363-2.048,0.363c-1.223,0-2.154-0.302-2.793-0.904
			c-0.641-0.603-0.96-1.421-0.96-2.454c0-0.837,0.265-1.551,0.794-2.141c0.529-0.591,1.291-1.04,2.288-1.348
			c0.996-0.308,2.188-0.461,3.573-0.461h0.861c-0.082-1.025-0.332-1.757-0.75-2.196c-0.418-0.438-1.055-0.658-1.907-0.658
			c-0.541,0-1.103,0.142-1.686,0.425c-0.582,0.283-1.119,0.679-1.611,1.188l-1.439-1.858c0.738-0.672,1.532-1.181,2.38-1.525
			c0.85-0.345,1.684-0.517,2.504-0.517C121.879,75.465,123.119,75.851,124.05,76.621z M121.965,84.975
			c0.483-0.524,0.775-1.354,0.873-2.485h-0.566c-1.443,0-2.496,0.156-3.161,0.468c-0.664,0.312-0.997,0.804-0.997,1.477
			c0,0.459,0.167,0.796,0.499,1.009s0.789,0.319,1.372,0.319C120.82,85.762,121.48,85.5,121.965,84.975z"/>
		<path fill="#231F20" d="M131.904,87.595c-0.541-0.262-1.004-0.635-1.39-1.119l-0.382,1.132h-1.968V70.605h3.026v0.283
			c-0.09,0.098-0.147,0.207-0.172,0.325c-0.025,0.119-0.033,0.318-0.025,0.597v5.045c0.361-0.402,0.781-0.714,1.262-0.936
			c0.479-0.222,0.965-0.332,1.457-0.332c0.902,0,1.73,0.224,2.486,0.671c0.754,0.446,1.354,1.113,1.802,1.999
			c0.446,0.886,0.671,1.96,0.671,3.223c0,1.378-0.24,2.56-0.721,3.543c-0.479,0.984-1.107,1.725-1.882,2.221
			s-1.593,0.745-2.454,0.745C133.016,87.989,132.446,87.857,131.904,87.595z M134.471,85.258c0.389-0.254,0.713-0.664,0.971-1.23
			c0.259-0.565,0.389-1.287,0.389-2.165c0-1.197-0.223-2.161-0.665-2.892c-0.442-0.729-1.103-1.095-1.98-1.095
			c-0.837,0-1.415,0.334-1.735,1.003c-0.319,0.669-0.479,1.572-0.479,2.713c0,1.41,0.196,2.438,0.59,3.081
			c0.394,0.645,0.959,0.966,1.697,0.966C133.677,85.639,134.08,85.512,134.471,85.258z"/>
	</g>
</g>
<polygon fill="none" stroke="#000000" stroke-linecap="round" stroke-linejoin="round" stroke-miterlimit="10" points="1,26 
	22.651,38.5 22.651,63.5 1,51 "/>
<polygon fill="none" stroke="#000000" stroke-linecap="round" stroke-linejoin="round" stroke-miterlimit="10" points="1,51 
	22.651,63.5 22.651,88.5 1,76 "/>
<polygon fill="none" stroke="#000000" stroke-linecap="round" stroke-linejoin="round" stroke-miterlimit="10" points="22.651,63.5 
	44.301,76 44.301,101 22.651,88.5 "/>
<polygon fill="none" stroke="#000000" stroke-linecap="round" stroke-linejoin="round" stroke-miterlimit="10" points="44.301,26 
	65.952,38.5 65.955,63.5 44.301,51 "/>
<polygon fill="none" stroke="#000000" stroke-linecap="round" stroke-linejoin="round" stroke-miterlimit="10" points="65.955,63.5 
	65.955,38.5 87.602,26 87.602,51 "/>
<polygon fill="none" stroke="#000000" stroke-linecap="round" stroke-linejoin="round" stroke-miterlimit="10" points="65.955,88.5 
	65.955,63.5 87.602,51 87.602,76 "/>
<polygon fill="none" stroke="#000000" stroke-linecap="round" stroke-linejoin="round" stroke-miterlimit="10" points="44.307,101 
	44.307,76 65.955,63.5 65.955,88.5 "/>
<polygon fill="none" stroke="#000000" stroke-linecap="round" stroke-linejoin="round" stroke-miterlimit="10" points="22.654,63.5 
	22.654,38.5 44.301,26 44.301,51 "/>
<polygon fill="none" stroke="#000000" stroke-linecap="round" stroke-linejoin="round" stroke-miterlimit="10" points="44.301,26 
	65.955,13.5 44.301,1 22.651,13.5 "/>
<polygon fill="none" stroke="#000000" stroke-linecap="round" stroke-linejoin="round" stroke-miterlimit="10" points="44.301,76 
	65.955,63.5 44.301,51 22.651,63.5 "/>
<polygon fill="none" stroke="#000000" stroke-linecap="round" stroke-linejoin="round" stroke-miterlimit="10" points="22.651,38.5 
	44.304,26 22.651,13.5 1.003,26 "/>
<polygon fill="none" stroke="#000000" stroke-linecap="round" stroke-linejoin="round" stroke-miterlimit="10" points="65.955,38.5 
	87.608,26 65.955,13.5 44.304,26 "/>
</svg>
