<?xml version="1.0" encoding="utf-8"?>
<!-- Generator: Adobe Illustrator 21.0.2, SVG Export Plug-In . SVG Version: 6.00 Build 0)  -->
<svg version="1.1" id="Layer_1" xmlns="http://www.w3.org/2000/svg" xmlns:xlink="http://www.w3.org/1999/xlink" x="0px" y="0px"
	 viewBox="0 0 307.7 153.7" style="enable-background:new 0 0 307.7 153.7;" xml:space="preserve">
<style type="text/css">
	.st0{fill:#CE3229;}
</style>
<path d="M0,153.7V84.8h23.6c21.5,0,35.3,15,35.3,34.5c0,19.6-13.8,34.4-35.3,34.4H0z M50,119.3c0-14.9-9.4-26.9-26.5-26.9h-15V146
	h15C40.3,146,50,134,50,119.3"/>
<path d="M112.2,153.7l-17.5-27.4H80.9v27.4h-8.6V84.8H100c12.6,0,21.7,8.1,21.7,20.8c0,12.4-8.6,19.2-18,20l18.6,28.1H112.2z
	 M112.8,105.5c0-7.9-5.7-13.1-13.8-13.1H80.9v26.4H99C107.2,118.8,112.8,113.3,112.8,105.5"/>
<path d="M184.5,153.7l-6.1-15.4H144l-6.1,15.4h-9.8l27.8-68.9h10.6l27.7,68.9H184.5z M161.2,93.5l-14.6,37.2h29.2L161.2,93.5z"/>
<polygon points="203.3,153.7 203.3,84.8 248.4,84.8 248.4,92.4 211.8,92.4 211.8,114.6 247.7,114.6 247.7,122.3 211.8,122.3 
	211.8,153.7 "/>
<polygon points="277.2,153.7 277.2,92.4 255.4,92.4 255.4,84.8 307.7,84.8 307.7,92.4 285.8,92.4 285.8,153.7 "/>
<rect x="80.9" y="1" width="17.8" height="68.9"/>
<path d="M149.5,70l-11.6-23.1h-9.1V70h-17.8V1h34.5c15.3,0,24,10.1,24,22.9c0,12-7.2,18.4-13.7,20.7L169.9,70H149.5z M151.5,23.9
	c0-4.8-3.8-7.3-8.6-7.3h-14.1v14.8h14.1C147.6,31.3,151.5,28.7,151.5,23.9"/>
<path d="M174.4,60.2l9.4-13.8c5,5,12.6,9.1,22.1,9.1c6,0,9.7-2.1,9.7-5.5c0-9.1-39-1.5-39-28.1c0-11.6,9.7-21.9,27.4-21.9
	c11.1,0,20.7,3.3,28,9.6l-9.7,13.3c-5.8-4.9-13.3-7.2-20.2-7.2c-5.2,0-7.4,1.8-7.4,4.8c0,8.5,39,2.1,39,27.7c0,13.8-10.2,23-28.7,23
	C191,71.2,181.3,66.8,174.4,60.2"/>
<polygon points="255.6,70 255.6,16.5 236.3,16.5 236.3,1 292.6,1 292.6,16.5 273.4,16.5 273.4,70 "/>
<polygon points="71.3,16.4 71.3,0.9 31.9,0.9 31.9,12 20.7,12 20.7,69.8 38.5,69.8 38.5,42.6 70.6,42.6 70.6,27.1 38.5,27.1 
	38.5,16.4 "/>
<polygon class="st0" points="31.9,12 20.7,12 31.9,0.9 "/>
</svg>
